<svg width="200" height="200" viewBox="0 0 200 200" fill="none" xmlns="http://www.w3.org/2000/svg">
  <!-- Background Circle -->
  <circle cx="100" cy="100" r="90" fill="#7367F0" />
  
  <!-- Camera Icon -->
  <path d="M135 75H120L115 65H85L80 75H65C59.5 75 55 79.5 55 85V135C55 140.5 59.5 145 65 145H135C140.5 145 145 140.5 145 135V85C145 79.5 140.5 75 135 75ZM100 130C87.5 130 77.5 120 77.5 107.5C77.5 95 87.5 85 100 85C112.5 85 122.5 95 122.5 107.5C122.5 120 112.5 130 100 130Z" fill="white"/>
  
  <!-- Lens Circle -->
  <circle cx="100" cy="107.5" r="22.5" fill="#9E95F5"/>
  
  <!-- Light Reflection -->
  <circle cx="90" cy="97.5" r="7.5" fill="white" fill-opacity="0.7"/>
  
  <!-- Magic Sparkles -->
  <path d="M155 45L160 55L170 60L160 65L155 75L150 65L140 60L150 55L155 45Z" fill="white"/>
  <path d="M40 120L43 126L49 129L43 132L40 138L37 132L31 129L37 126L40 120Z" fill="white"/>
  <path d="M130 150L132 154L136 156L132 158L130 162L128 158L124 156L128 154L130 150Z" fill="white"/>
</svg> 